<?xml version="1.0" encoding="UTF-8"?>
<svg xmlns="http://www.w3.org/2000/svg" xmlns:xlink="http://www.w3.org/1999/xlink" viewBox="0 0 64 64" width="64px" height="64px">
<g id="surface241741176">
<path style=" stroke:none;fill-rule:nonzero;fill:rgb(70.19608%,20%,20%);fill-opacity:1;" d="M 56.457031 17.441406 C 56.117188 16.003906 55.035156 14.847656 53.589844 14.390625 C 49.761719 13.175781 41.453125 12 32 12 C 22.546875 12 14.238281 13.175781 10.410156 14.390625 C 8.964844 14.847656 7.882812 16.003906 7.542969 17.441406 C 6.902344 20.160156 6 25.203125 6 32 C 6 38.796875 6.902344 43.839844 7.542969 46.558594 C 7.882812 47.996094 8.964844 49.152344 10.410156 49.609375 C 14.238281 50.824219 22.546875 52 32 52 C 41.453125 52 49.761719 50.824219 53.589844 49.609375 C 55.035156 49.152344 56.117188 47.996094 56.457031 46.558594 C 57.097656 43.839844 58 38.796875 58 32 C 58 25.203125 57.097656 20.160156 56.457031 17.441406 Z M 27 40 L 27 24 L 41.855469 32 Z M 27 40 "/>
</g>
</svg>
